# xmcd
#
# Track frame offsets: 
#        150
#        18370
#        34877
#
# Disc length: 706 seconds
#
# Revision: 0
# Processed by: cddbd v1.4PL0 Copyright (c) Steve Scherf et al.
# Submitted via: ExactAudioCopy v0.90b4
#
DISCID=1b02c003
DTITLE=Ryoko Inoue - Moshimo koko de anata ni aetara
DYEAR=1997
DGENRE=Game
TTITLE0=Moshimo koko de anata ni aetara
TTITLE1=Sora no chikara (Poem)
TTITLE2=Moshimo koko de anata ni aetara (Karaoke)
EXTD=
EXTT0=
EXTT1=
EXTT2=
PLAYORDER=
